<svg xmlns="http://www.w3.org/2000/svg" width="52" height="52" viewBox="0 0 76.693 76.694"><g fill="#91DC5A"><path d="M30.833 0c-7.732 0-13.992 6.265-13.992 13.994s6.265 13.993 13.992 13.993c7.726 0 13.992-6.265 13.992-13.993C44.825 6.265 38.562 0 30.833 0zm0 26.278c-6.784 0-12.287-5.501-12.287-12.286 0-6.786 5.499-12.287 12.287-12.287 6.787 0 12.286 5.5 12.286 12.287 0 6.785-5.498 12.286-12.286 12.286z"/><path d="M35.26 13.756c-.675-.463-1.954-.958-3.833-1.486V6.341c1.119.042 1.935.472 2.445 1.292.274.446.441.977.498 1.594h2.13c-.042-1.377-.493-2.481-1.355-3.32-.867-.838-2.106-1.313-3.718-1.427V2.884h-1.159v1.618c-1.633.018-2.897.519-3.805 1.51-.905.99-1.355 2.102-1.355 3.335 0 1.38.421 2.46 1.259 3.238.838.778 2.14 1.336 3.9 1.667v6.633c-1.373-.114-2.313-.628-2.819-1.546-.288-.511-.459-1.322-.53-2.434h-2.153c0 1.397.234 2.505.693 3.323.84 1.518 2.45 2.354 4.81 2.508v2.362h1.159v-2.362c1.469-.163 2.59-.495 3.371-.997 1.401-.909 2.1-2.442 2.1-4.602.003-1.491-.545-2.62-1.638-3.381zm-4.992-1.718c-.909-.177-1.627-.495-2.168-.948-.535-.456-.805-1.083-.805-1.888 0-.666.231-1.303.68-1.91.455-.61 1.217-.932 2.289-.974l.004 5.72zm4.029 7.389c-.525.951-1.483 1.458-2.871 1.52v-6.402c1.014.275 1.732.567 2.163.876.748.528 1.121 1.299 1.121 2.312 0 .645-.136 1.208-.413 1.694z"/></g><g fill="#91DC5A"><path d="M21.207 35.137l.78 2.2a28.12 28.12 0 0 1 18.474-.062l.762-2.207c-6.471-2.231-13.581-2.211-20.016.069z"/><path d="M74.545 48.792l-.062-1.023-1.023-.069c-.874-.058-1.943-.021-2.923.016-.545.022-1.151.05-1.583.041-2.263-4.24-5.39-7.396-9.311-9.387.157-2.174.526-4.213 1.703-5.185l2.264-1.866-2.927-.201c-4.182-.269-7.607 2.319-9.646 4.396-4.312-3.771-11.805-6.071-19.971-6.071h-.056c-8.058.011-15.421 2.214-20.858 6.147l-1.087-.738c-1.349-.92-2.842-.997-4.099-.196-1.968 1.257-2.784 4.188-2.438 6.3.189 1.143.698 2.06 1.456 2.659-2.841 5.208-2.768 13.618 1.686 17.788.652 5.479 1.698 11.024 4.642 14.839l.348.451H21.7l-.169-1.313c-.172-1.346-.366-2.833-.341-4.43 5.104.999 11.063 1.309 17.035.883.9 1.503 1.827 3.054 2.953 4.432l.35.429h9.598l1.321-.116-.183-1.327c-.278-2.028-.563-4.115-.198-6.106 2.893-.701 13.467-3.682 20.794-11.314h.002c1.761-1.835 1.95-4.824 1.683-9.039zm-3.364 7.418c-8.016 8.344-20.191 10.784-20.309 10.808l-.725.141-.186.712c-.581 2.19-.439 4.334-.166 6.487h-7.149c-.878-1.151-1.641-2.427-2.445-3.769l-.722-1.199-.727.055c-6.502.536-13.041.155-18.401-1.063l-1.293-.292-.127 1.323c-.173 1.798-.051 3.479.114 4.948h-7.224c-2.422-3.466-3.303-8.606-3.887-13.671l-.053-.456-.353-.299c-4.062-3.429-3.909-11.864-.93-16.113l.979-1.395-1.654-.408c-.591-.146-.956-.634-1.089-1.441-.141-.828.019-1.787.351-2.579a2.01 2.01 0 0 0 .027 1.046c.149.495.649 1.346 2.289 1.471l.549.046.383-.401c5.085-5.311 13.31-8.368 22.573-8.377h.054c8.148 0 15.495 2.375 19.179 6.207l.888.92.835-.962c1.234-1.416 3.483-3.567 6.255-4.277-.648 1.558-.86 3.455-.961 5.349l-.045.791.721.331c4.017 1.848 7.037 4.872 9.233 9.252l.258.518.568.107c.561.109 1.368.084 2.623.037.536-.019 1.108-.042 1.651-.044.125 2.622.002 5.066-1.084 6.197z"/><circle cx="59.557" cy="47.104" r="1.976"/></g></svg>