<!-- Generated by IcoMoon.io -->
<svg version="1.1" xmlns="http://www.w3.org/2000/svg" width="32" height="32" viewBox="0 0 32 32">
<title>piggy-bank-with-dollar-coin</title>
<path fill="#91dc5a" d="M12.865 0c-3.226 0-5.838 2.614-5.838 5.839s2.614 5.838 5.838 5.838c3.224 0 5.838-2.614 5.838-5.838s-2.613-5.839-5.838-5.839zM12.865 10.964c-2.831 0-5.127-2.295-5.127-5.126s2.294-5.127 5.127-5.127c2.832 0 5.126 2.295 5.126 5.127s-2.294 5.126-5.126 5.126z"></path>
<path fill="#91dc5a" d="M14.712 5.74c-0.282-0.193-0.815-0.4-1.599-0.62v-2.474c0.467 0.018 0.807 0.197 1.020 0.539 0.114 0.186 0.184 0.408 0.208 0.665h0.889c-0.018-0.575-0.206-1.035-0.565-1.385-0.362-0.35-0.879-0.548-1.551-0.595v-0.666h-0.484v0.675c-0.681 0.008-1.209 0.217-1.588 0.63-0.378 0.413-0.565 0.877-0.565 1.391 0 0.576 0.176 1.026 0.525 1.351s0.893 0.557 1.627 0.696v2.768c-0.573-0.048-0.965-0.262-1.176-0.645-0.12-0.213-0.191-0.552-0.221-1.016h-0.898c0 0.583 0.098 1.045 0.289 1.386 0.35 0.633 1.022 0.982 2.007 1.046v0.986h0.484v-0.986c0.613-0.068 1.081-0.207 1.407-0.416 0.585-0.379 0.876-1.019 0.876-1.92 0.001-0.622-0.227-1.093-0.683-1.411zM12.629 5.023c-0.379-0.074-0.679-0.207-0.905-0.396-0.223-0.19-0.336-0.452-0.336-0.788 0-0.278 0.096-0.544 0.284-0.797 0.19-0.255 0.508-0.389 0.955-0.406l0.002 2.387zM14.31 8.106c-0.219 0.397-0.619 0.608-1.198 0.634v-2.671c0.423 0.115 0.723 0.237 0.902 0.365 0.312 0.22 0.468 0.542 0.468 0.965 0 0.269-0.057 0.504-0.172 0.707z"></path>
<path fill="#91dc5a" d="M8.849 14.661l0.325 0.918c2.478-0.876 5.216-0.886 7.708-0.026l0.318-0.921c-2.7-0.931-5.667-0.923-8.352 0.029z"></path>
<path fill="#91dc5a" d="M31.104 20.358l-0.026-0.427-0.427-0.029c-0.365-0.024-0.811-0.009-1.22 0.007-0.227 0.009-0.48 0.021-0.66 0.017-0.944-1.769-2.249-3.086-3.885-3.917 0.066-0.907 0.219-1.758 0.711-2.163l0.945-0.779-1.221-0.084c-1.745-0.112-3.174 0.968-4.025 1.834-1.799-1.573-4.926-2.533-8.333-2.533-0.008 0-0.016 0-0.023 0-3.362 0.005-6.434 0.924-8.703 2.565l-0.454-0.308c-0.563-0.384-1.186-0.416-1.71-0.082-0.821 0.524-1.162 1.747-1.017 2.629 0.079 0.477 0.291 0.86 0.608 1.109-1.185 2.173-1.155 5.682 0.703 7.422 0.272 2.286 0.708 4.6 1.937 6.191l0.145 0.188h4.606l-0.070-0.548c-0.072-0.562-0.153-1.182-0.142-1.848 2.13 0.417 4.616 0.546 7.108 0.368 0.376 0.627 0.762 1.274 1.232 1.849l0.146 0.179h4.005l0.551-0.048-0.076-0.554c-0.116-0.846-0.235-1.717-0.083-2.548 1.207-0.293 5.619-1.536 8.676-4.721h0.001c0.735-0.766 0.814-2.013 0.702-3.771zM29.7 23.453c-3.345 3.481-8.425 4.5-8.474 4.51l-0.302 0.059-0.078 0.297c-0.242 0.914-0.183 1.808-0.069 2.707h-2.983c-0.366-0.48-0.685-1.013-1.020-1.573l-0.301-0.5-0.303 0.023c-2.713 0.224-5.441 0.065-7.678-0.444l-0.54-0.122-0.053 0.552c-0.072 0.75-0.021 1.452 0.048 2.065h-3.014c-1.011-1.446-1.378-3.591-1.622-5.704l-0.022-0.19-0.147-0.125c-1.695-1.431-1.631-4.95-0.388-6.723l0.408-0.582-0.69-0.17c-0.247-0.061-0.399-0.265-0.454-0.601-0.059-0.345 0.008-0.746 0.146-1.076-0.034 0.152-0.031 0.297 0.011 0.436 0.062 0.207 0.271 0.562 0.955 0.614l0.229 0.019 0.16-0.167c2.122-2.216 5.553-3.492 9.418-3.495 0.008 0 0.016 0 0.023 0 3.4 0 6.465 0.991 8.002 2.59l0.37 0.384 0.348-0.401c0.515-0.591 1.453-1.488 2.61-1.785-0.27 0.65-0.359 1.442-0.401 2.232l-0.019 0.33 0.301 0.138c1.676 0.771 2.936 2.033 3.852 3.86l0.108 0.216 0.237 0.045c0.234 0.045 0.571 0.035 1.094 0.015 0.224-0.008 0.462-0.018 0.689-0.018 0.052 1.094 0.001 2.114-0.452 2.586v0z"></path>
<path fill="#91dc5a" d="M25.674 19.654c0 0.455-0.369 0.824-0.824 0.824s-0.824-0.369-0.824-0.824c0-0.455 0.369-0.824 0.824-0.824s0.824 0.369 0.824 0.824z"></path>
</svg>
